<svg id="Layer_1" data-name="Layer 1" xmlns="http://www.w3.org/2000/svg" viewBox="0 0 612 792"><defs><style>.cls-1{fill:#2e3191;}</style></defs><path class="cls-1" d="M176,452.93c-7.6,1.92-15.09,3.77-22.56,5.74a68.18,68.18,0,0,0-6.5,2.22c-4,1.5-7.87,1.22-12.08.31-4.52-1-9.32-.72-14-.85-3.14-.09-6.3-.05-9.44.13-5.17.3-9.64-2.17-14.44-3.35-5.45-1.34-11-2.2-16.54-3.25a10.47,10.47,0,0,1-2.28-.26c-1.55-.69-4.25-1.53-4.29-2.4a4.64,4.64,0,0,1,3.75-5.07c3.1-.5,6.26-.59,9.39-.79a24.3,24.3,0,0,1,3.24.31L77,432.38a10.66,10.66,0,0,1,12.22.3c2.12,1.48,4,3.29,6.14,4.75,2.65,1.81,5.44,3.41,8.16,5.11l.88-.77c-2.28-3.88-4.6-7.74-6.81-11.65a23.32,23.32,0,0,1-1.33-3.53c1.49-.21,3.34-1.08,4.42-.5,2.87,1.54,5.41,3.69,8.75,6.08.75-1.2,2.31-2.84,2.9-4.78,1.85-6.08,3.34-12.27,5.1-18.92-12.38,0-19-8.32-25.11-17.24-2-2.88-2.43-6.62-1.9-10.42l3.52,1.89,3.55,1.9c1.82-2.39,2.07-4.42,0-6.54-4.87-4.89-6-10.79-5.14-17.49.5-3.86.09-7.85.09-11.78l.78-.31c1.38,1.93,2.71,3.9,4.16,5.78s3,3.67,4.52,5.5l1-.46a12.44,12.44,0,0,1,.25-2.68,42.66,42.66,0,0,1,2.79-7.61c1-1.76,1.65-3.19,1.37-5.31-.56-4.12-1-8.16-3.93-11.65l5.13,1.6a10.21,10.21,0,0,0,1.38-12.06c-1.66-3.13-3-6.33-2.62-10.48l7.51,7.16c-2.38-13.1-7.59-25.42-.47-38.56.4,6.58,2.11,12,5.56,16.66s7.07,8.75,11.15,13.73c1-2.69,1.77-4.66,2.58-6.77,5.06,3,6.75,8,8.11,13.66q28.43-107.3,57-215l329.32,87c-2.44,9.32-4.79,18.37-7.18,27.41q-18.48,69.87-37,139.74-21,79.57-42,159.16c-1,4-2,8-3.21,11.88a3.11,3.11,0,0,1-2.28,1.74,55.32,55.32,0,0,1-6.84-.59q44-166.54,88-333.14c-5.65-1.54-11.15-3.08-16.67-4.53q-58.63-15.48-117.26-30.94-50.16-13.25-100.3-26.54-37.81-10-75.61-20c-2.23-.59-3-.09-3.6,2.07q-14.15,54-28.4,108-12.75,48.14-25.61,96.25c-.52,1.93-.84,3.52.44,5.58,1.14,1.83.94,4.49,1.86,6.85l56.16-212c1.79,2.79,3.32,5,4.58,7.25a4.18,4.18,0,0,1,0,2.73q-13.07,49.24-26.17,98.46Q175.36,271.5,164,314.67c-.69,2.59-1.31,5.2-2.18,7.73-1.93,5.56-2,11.25-1.48,17,.22,2.21.66,4.27,3.32,4.71s4-1.42,4.53-3.48a79.9,79.9,0,0,0,1.29-8.82c3.38,6,5.84,12.82,5,20.27a112.65,112.65,0,0,1-3.72,17.37c-1.18,4.14-1.15,7.93.88,11.64a10.7,10.7,0,0,0,2.93,3.44c2.39,1.74,4.4,1.31,5.68-1.36a60.28,60.28,0,0,0,2.51-7.62,19.85,19.85,0,0,1,0,12.94c-3.66,11.13-11.18,18-22.94,20.09a8.73,8.73,0,0,0-5.15,3.1c-4.22,6-9.72,8.36-16.87,7.2-.36-.06-.73-.09-1.31-.15-.8,3-1.6,5.89-2.5,9.21a20.92,20.92,0,0,0,11-1.54c7.34-3.21,14.65-6.68,22.29-9,8.35-2.49,16.15.89,23.8,4.23a12.25,12.25,0,0,1,7,8.11c2.39,7.58,7.05,13.94,10.8,20.79,6.66,12.15,12.92,24.53,19.84,36.53,5.78,10,12.25,19.66,18.42,29.46,4.43,7,8.78,14.15,13.34,21.12,3.3,5,6.86,9.91,10.29,14.82.28-.07.55-.07.59-.16,2.23-5.35,4.59-10.65,6.63-16.07s3.91-11.11,5.7-16.73c3.1-9.71,6.09-19.46,9.1-29.21,2.88-9.3,5.79-18.59,8.6-27.92,2-6.66,3.47-13.52,5.91-20,2.2-5.87,5.27-11.44,8.16-17a121.82,121.82,0,0,1,7-12.16c5.48-8.13,13.26-12.41,23-13.86a23.28,23.28,0,0,1,20,5.92c3.86,3.42,5.13,8.09,5.72,12.8a142.17,142.17,0,0,1,1.36,20.28c-.13,6.29-1.31,12.56-2.15,18.81-1.08,8-1.9,16.12-3.58,24-1.19,5.54-3.69,10.79-5.5,16.21-2.21,6.61-4.18,13.31-6.48,19.9-4.51,12.93-9.59,25.61-16.9,37.28-4.62,7.37-9,14.92-13.77,22.18-3.93,6-8.39,11.59-12.49,17.46-3.88,5.57-7.58,11.27-11.37,16.9-4.62,6.86-9.63,13.33-17.58,16.64a11.21,11.21,0,0,1-3.84.63c-9.6.42-16.15-5.15-21.31-12.06a241,241,0,0,1-16.26-25c-15.45-27.07-28.79-55.22-41.86-83.5q-8.85-19.15-17.33-38.49C180,464.23,178.27,458.94,176,452.93Zm-22-58.8c-.78-5.22.81-8.74,2.48-12.5a126.24,126.24,0,0,0,5.66-16.74,5.62,5.62,0,0,0-2.27-6.16c-.27.84-.41,1.28-.54,1.72-1.06,3.6-2.86,4.14-5.43,1.5-1-1-2.18-2.18-2.48-3.47-.78-3.3-1.1-6.7-1.63-10.06-.25-1.6-.56-3.2-.85-4.79l-.72.18a25.48,25.48,0,0,1-.34,5c-.23.94-1.31,1.66-2,2.47-.68-.72-1.76-1.36-2-2.2a69.58,69.58,0,0,1-1.34-8.15c-.27-2.35-.31-4.74-.44-7.11l-.77,0a9.55,9.55,0,0,1-.49,2.11c-.59,1.2-1.34,2.32-2,3.48-.71-1-1.75-1.94-2.06-3.06-1.27-4.61-4-8.25-7.25-11.56a22.51,22.51,0,0,0-3.9-2.56c1.32,3,2.51,5.16,3.27,7.5.92,2.85.8,5.56-1.67,7.92a23.07,23.07,0,0,0-3.68,5.08,9.45,9.45,0,0,0-.69,8.24c.28.83-.52,2-.82,3.05-.92-.4-2.06-.57-2.69-1.23a33.44,33.44,0,0,1-2.81-4c-1-1.46-2-2.91-2.85-4.13.21,2.94,1.11,6,.47,8.67a18.41,18.41,0,0,0,1.84,13.8,11.78,11.78,0,0,1,.81,9.72l-8.75-7.39a14.14,14.14,0,0,0,.31,3.48c1.43,3.63,3,7.2,4.55,10.79.79,1.83,2.19,3.57.73,6.06l-5.7-6.57c.65,6.15,2.92,11.06,8.7,13.93a27,27,0,0,1,7,5.23c3.33,3.35,6.42,6.85,11.23,8.17,5.61,1.55,10.14-.47,12.49-5.75.77-1.72,1.79-2.7,3.93-2.56,1.4.1,3.56-.09,4.18-1,2.22-3.22,3.93-6.8,6.13-10.77Zm-32.53,33.19c5.38.56,5.38.56,6.63-4.06l.6-2.19c1.18-4.36.75-5.2-3.77-7.18C123.84,418.32,122.7,422.72,121.52,427.32Zm3.25,18c-1.77-3.51-2.44-3.83-7.46-3.76C119.62,445.27,121,446,124.77,445.32Z"/><path class="cls-1" d="M360.28,303.75c1.84-1.92,1.68-4.48-.61-6.57-2.62-2.38-5.42-4.57-8.06-6.93-4.37-3.89-7.18-8.78-9.85-14-3.42-6.69-5.13-14.48-10.78-19.8-3.41-3.21-7.67-5.55-11.63-8.16-1.74-1.14-4.06-1.58-5.47-3-4.72-4.72-10.53-7.6-16.37-10.5a18.43,18.43,0,0,1-9.84-11.63,45.69,45.69,0,0,0-9.26-16.7c-.83-.92-1.56-1.91-2.36-2.91,8.48-3.85,17-3.8,25.89-2.35,27.75,4.51,54.28,13.69,81.41,20.54a6.55,6.55,0,0,1,3.08,1.89q7.53,8.52,14.84,17.23a6.52,6.52,0,0,1,1.23,3.39c.56,5.91,1,11.82,1.42,17.73.88,11.84,1.79,23.68,2.62,35.53.53,7.65.95,15.31,1.43,23,.7,11.1,1.44,22.2,2.13,33.31.47,7.64.83,15.3,1.34,22.94.85,13,1.79,26,2.67,39,.48,7,.84,14,1.38,21,.85,11,1.8,21.95,2.69,32.93.65,8,1.26,16,1.39,24.22q-12.18-27.72-24.38-55.44c-8.17-18.57-16.52-37.06-24.49-55.71s-17.24-36.67-23.9-56.41c10.41-3.4,14.75-10,12.07-20.44-.12-.13-.23-.38-.35-.39-8.37-.51-12.32-7.42-17.7-12.24a49.2,49.2,0,0,1-4.61-4.75c-2.68-3.12-3-7.05-3-10.86-.26-11.29-6.9-17.71-16.53-21.54-6.1-2.43-12.5-4.13-18.8-6-9.26-2.8-15.44-9-19.31-17.61-3.22-7.15-6.1-14.47-9.13-21.72-.93-2.24-.35-3.88,1.92-4.92,2.82-1.29,5.4-.69,6.65,1.88,3.14,6.46,6.72,12.79,9.07,19.53,3,8.7,9.27,13.61,17.15,17.05,4.28,1.88,8.79,3.25,13.09,5.1,9.33,4,15.75,10.95,19.75,20.24,2.48,5.78,4.82,11.66,7.79,17.18a15.46,15.46,0,0,0,6.1,5.76C357.2,296,358.64,297.33,360.28,303.75Z"/><path class="cls-1" d="M339.44,316.38c-.09,4.94.1,9.52,1.66,13.85,5.42,15,11,30,16.58,45.2l-72.12,46.7c1.84-6.66,3.72-12.57,5-18.6.6-2.79.9-6.08,0-8.67-3.68-10.55-5.21-21.52-7.2-32.42a132.69,132.69,0,0,0-3.28-13.64c-1.75-5.94-4.87-11.51-10.14-14.55-3.72-2.14-8.73-2.57-13.21-2.79-6.69-.32-13.42.33-20.13.34a43.74,43.74,0,0,1-7.06-1c-5.31-.89-6.62-3.43-5-9.62.64-2.48.85-4.08-1.32-5.67-1.83-1.35-1.17-3.07-.15-4.6,1.29-1.92,2.43-3.5-.13-5.61-1-.82-1-3.15-1-4.81a14.25,14.25,0,0,1,.9-3.61c1.3-4.88,1-5.57-4-6.63-2.47-.52-4.87-1.25-4.74-3.9A12.23,12.23,0,0,1,216.7,280c4.57-6,9.48-11.76,14.11-17.72.41-.53,0-2.05-.45-2.81-.81-1.3-2-2.36-2.58-4a3.77,3.77,0,0,1,.66.26c3.67,2.46,5.71,1.59,6.06-2.74.28-3.34,0-6.74.58-10a22.75,22.75,0,0,1,2.64-7.22c2.95-5.26,6.2-10.35,9.34-15.51,3-4.94,4.72-5.35,8.72-1.34a28.9,28.9,0,0,1,8.52,17.4,36,36,0,0,0,6.34,16.17,29,29,0,0,0,5.93,6.13c7.59,6,15.29,11.91,23,17.74a19.7,19.7,0,0,1,7.12,9.16c1.71,4.76,3.15,9.63,5.12,14.28,2.94,6.94,6.61,13.23,15.29,14.26C331.37,314.56,335.54,315.63,339.44,316.38Z"/><path class="cls-1" d="M234.36,476c-5.82-10.74-11.4-21-16.9-31.31a4,4,0,0,1-.08-2.66q8.38-32.49,16.85-65c3.29-12.65,6.65-25.3,9.82-38,.57-2.32,1.88-2.93,3.91-3.69,7-2.61,12.54,1.53,18.58,3.36.59.18,1.07,1.27,1.27,2q7.54,27.35,15,54.74a6.77,6.77,0,0,1-.13,3.34c-1.75,6.85-3.53,13.69-5.47,20.48a6.12,6.12,0,0,1-2.29,3.05c-10.68,7.31-21.35,14.63-32.19,21.7a8.71,8.71,0,0,0-4.16,6.89c-1,7.67-2.31,15.31-3.51,23A16.69,16.69,0,0,1,234.36,476Z"/><path class="cls-1" d="M582.23,538.11c-7.21.61-14.42,1.26-21.64,1.81-7.39.56-14.81.84-22.19,1.57s-14.73,1.87-22.1,2.8a11.1,11.1,0,0,1-3.15.05c-2.48-.42-4.28-.21-4.61,2.93-.08.77-1.45,1.4-2.21,2.11a4,4,0,0,0-.79.81q-6.71,11-13.39,22a4.44,4.44,0,0,1-.66.45q4.35-14.57,8.38-28c-4.13-2.1-7.72-4.25-11.55-5.75-1.94-.76-4.35-.61-6.52-.43-5.07.4-10.12,1-15.17,1.68-.71.09-1.8.69-1.94,1.24-.68,2.84-1.11,5.75-1.76,9.34,8.77-5.81,17.39-8.93,27.17-5.43-1.6,1.2-2.94,2.31-4.39,3.25a12.59,12.59,0,0,1-3.3,1.6c-4.85,1.37-9.77,2.49-14.58,4-2.91.9-6.16,1.67-7,5.4-.91,4.17-3.18,8-2.53,12.56.43,3.1-.75,5.67-4.5,5.46-.31,1.29-.55,2.33-.83,3.51a45.38,45.38,0,0,0-4.35-2.53,2.63,2.63,0,0,0-2,.26c-6.3,3.67-11.8.93-12.66-6.36a11.28,11.28,0,0,0-.39-1.65c-3.3,1.78-6.36,4-9.78,5.15-4.67,1.54-8.48-1.64-8.16-6.55a25,25,0,0,1,2-8c2.73-6.38,6.28-12.26,12.7-17.08-3.58,0-6.28-.11-9,.08-.63,0-1.31,1.07-1.75,1.78-.81,1.34-.29,3.51-2.93,3.7-.64.05-1,2.33-1.7,3.41-2.84,4.2-5.88,8.27-8.66,12.5-1.45,2.2-2.52,4.65-4.14,6.85,2.84-9.47,5.68-18.94,8.34-27.83-4.62-2.47-8.8-4.5-12.73-6.94a11,11,0,0,1-3.95-4.5c-.4-.85.64-2.69,1.47-3.74,1.31-1.65,3.07-1.93,5.16-1a93.41,93.41,0,0,0,8.79,3.25,15.46,15.46,0,0,0,3.32.33c1.6-6.11,1.42-12.66,5.41-18.24a12.07,12.07,0,0,1,3.76,8.68,66.49,66.49,0,0,1,.06,8.35c-.13,2.13.75,3,2.7,3.15,2.86.25,5.72.67,8.58.78,12.38.46,24.76.79,37.14,1.27,4.88.2,9.75.68,15,1-.79-1.4-1.9-2.58-2.05-3.86a5.73,5.73,0,0,1,1.35-3.52c1.34-1.8,3.12-2.22,5.34-1.24,2.86,1.26,5.82,2.28,8.78,3.27a14.66,14.66,0,0,0,3.22.27c1.73-6.12,1.6-12.66,5.48-18.17,3,2.73,3.7,6,3.89,9.34.15,2.78-.1,5.58.14,8.35a3,3,0,0,0,1.84,2.19,70.73,70.73,0,0,0,9.41,1.05c11.9.47,23.8.7,35.69,1.26,8,.38,16,1.16,24,1.77ZM463.42,541l-.51-.92-13.54,1.16c-1.37,5.4-2.84,10.45-3.92,15.58-1.22,5.79.39,12.28,4,15.4,2.22-7.05,4.49-13.71,6.38-20.48,1.08-3.88,1.59-7.89,5.94-9.69A9.9,9.9,0,0,0,463.42,541Zm-37.19,25.85c4.84-2.64,9-5.62,11.23-10.91a63.71,63.71,0,0,1,4.36-8.35,62.2,62.2,0,0,1,4.08-5.44l-.44-.69c-1.2.54-2.76.77-3.51,1.68-1.62,2-2.75,4.34-4.25,6.42a25.83,25.83,0,0,1-3.08,3.2c-2.64,2.58-5.57,4.93-7.85,7.8C425.6,562.05,424.33,564.34,426.23,566.86Z"/><path class="cls-1" d="M78.89,554.94C87,524.25,95,493.86,103.07,463.49l8.65.78L90.23,545.71c5.35,1.45,10.39,2.83,15.43,4.17Q168,566.37,230.34,582.8a5.3,5.3,0,0,1,3.71,3.08c2,3.92,4.27,7.71,6.6,11.85Z"/><path class="cls-1" d="M426.86,516.22c-1.5-2.15-3.05-4.19-4.37-6.37a3.7,3.7,0,0,1-.25-2.59q7.39-28.31,14.89-56.57,17-64.29,34-128.58,15.21-57.66,30.37-115.32c.46-1.73,1.13-3.08,2.95-3.8s3.39-1.72,6-3.09Z"/><path class="cls-1" d="M415.7,580.72l8.18,1.92L408.21,642,302.94,614.17c2.1-3.21,3.91-6.25,6-9,.51-.66,2.22-.87,3.2-.62q40.07,10.46,80.09,21.07c2.76.73,5.55,1.41,8.26,2.28,1.73.55,2.45.4,3-1.63,3.72-14.52,7.61-29,11.46-43.51C415.16,582,415.48,581.31,415.7,580.72Z"/><path class="cls-1" d="M357.36,312.14a13.42,13.42,0,0,1-.24,2.86c-.44,1.41-1.07,2.69-3.05,2.07-6-1.87-12.21-3.3-18.06-5.59-10-3.93-16.4-11.64-20.23-21.55a69.71,69.71,0,0,1-3.3-9.49c-2-8.65-8.33-12.22-16-14.23-11.31-3-19.36-10.11-24.58-20.13-4.1-7.86-7-16.32-10.45-24.54a46.84,46.84,0,0,1-2.13-5.95,5.72,5.72,0,0,1,3.88-7c2.36-.57,4.26,1.17,5.41,4.37,2.94,8.19,5.65,16.49,9.17,24.41,4.79,10.77,14,16.52,25,19.26,11.52,2.85,17.6,10.76,20.9,21.44,1.13,3.65,1.87,7.41,2.85,11.1a11.7,11.7,0,0,0,5.39,7.49c7,4.07,13.71,9,21.78,10.73C357,308.1,357.66,309.43,357.36,312.14Z"/><path class="cls-1" d="M98.57,542.09c2.59-1.5,4.58-2.84,6.74-3.82a5.35,5.35,0,0,1,3.27-.09q30.53,7.94,61,16,26.75,7.05,53.46,14.22a4.9,4.9,0,0,1,2.59,1.88c1.17,1.8,2,3.79,3.33,6.28Z"/><path class="cls-1" d="M368.27,572.3c4.83-5.63,11.53-3.29,17.32-4.32v-.77a18,18,0,0,0-1.81-1c-3.69-1.61-5.67-4.75-7.25-8.2-.27-.58.13-1.43.1-2.15,0-1.09-.19-2.18-.22-2.48,1.05-1.21,1.9-2,2.58-3,4.5-6.3,11-9.3,18.29-10.73,2.42-.47,3.86,1.59,3.52,4.6-3.38-1.21-5.46,1.16-6.73,3.37a7.05,7.05,0,0,1-3.61,3.42,9.15,9.15,0,0,0-2,1.59c3.11,1.85,6.11,3.46,8.92,5.35a8.08,8.08,0,0,1,1.3,12.39c-1.18,1.25-2.54,2.33-3.67,3.61-3,3.43-12.2,4.66-16.23,1.51-2-1.58-5.14-1.81-7.77-2.6C370.19,572.61,369.29,572.51,368.27,572.3Z"/><path class="cls-1" d="M313.24,598.82a43.45,43.45,0,0,1,3.45-4.88c.42-.46,1.74-.36,2.55-.14q25.49,6.65,50.95,13.41c6.27,1.66,12.5,3.47,18.81,4.94,2.84.66,4.86,1.88,6,4.61a43.29,43.29,0,0,0,2.39,4.3Z"/><path class="cls-1" d="M97.51,539.7q10-37.77,20-75.55h6.94c-1.06,4.16-2,8.09-3.07,12-5,18.85-10.17,37.64-14.85,56.55-1.21,4.89-5.35,5.1-8.11,7.48Z"/><path class="cls-1" d="M368.22,554.4c-4,1-7.53,1.78-11.09,2.66-.64.15-1.23.54-1.87.71-1.32.35-3.27-.5-3.35,2s.22,4.58,2.77,5.77c4.19,2,8.41,1.23,12.64.23,1.56-.37,3.08-.89,4.66-1.35-2.78,2.22-5.66,4.27-8.22,6.66-1.17,1.09-3.57,2.16-1.67,4.5-5.13,4-13.62,1-16.62-3.9-.55-.9-.4-2.21-.65-3.32-.47-2-1.57-4.15-1.37-6.13a19.91,19.91,0,0,1,2.39-7.88,34.81,34.81,0,0,1,16-14.34c1.56-.72,2.65-.59,3.73.8.88,1.12,2.05,2,3,3.12,1.19,1.43,1.87,2.76.72,4.86C368.33,550.5,368.49,552.78,368.22,554.4Zm-14.6-4.47c2.48,1.24,2.61,6.43,6.42,3.09,1.64-1.44,1.49-5.64-.24-6.54C356.26,544.65,356.13,548.94,353.62,549.93Z"/><path class="cls-1" d="M410.19,572.82c0,2.19.45,4.49-.07,6.54-3.36,13.33-6.92,26.6-10.43,39.89-.07.26-.32.47-.66.94-1.4-2.4-3.07-4.56-4-7-.52-1.44-.05-3.38.37-5,2-7.67,4.06-15.31,6.19-22.94a3.54,3.54,0,0,1,1.51-2.16A6.83,6.83,0,0,0,407.2,578a45.17,45.17,0,0,1,2-5.3Z"/><path class="cls-1" d="M464,558.64c4.1-3.77,9.2-4.89,14.81-5.33Z"/><path class="cls-1" d="M143,388.5l1.78-3,.57.23L144,389.24c-.83,2.29-1.56,4.62-2.53,6.84a4.06,4.06,0,0,1-2,2.06,18.78,18.78,0,0,1-13.19,0c-2.66-1-4-3.86-3.58-7.07a6.69,6.69,0,0,0,.18-1.59c-.28-3-.61-6.08-.9-9.12a4.81,4.81,0,0,1,.17-1l2.85,3.85c2.14-4-1.92-8.81,2.38-11.93l-2.84-3.58c8.17-2.75,6.91-9.79,7.74-15.87a14.19,14.19,0,0,1,.54-3.62c.4,1,.71,2.11,1.2,3.09,1.84,3.62,4,7.11,5.5,10.86a21.28,21.28,0,0,1,1.18,7.71c0,4.62-.5,9.23-.73,13.84,0,.38.35,1.09.58,1.11a1.87,1.87,0,0,0,1.49-.45c1-1.69,1.92-3.46,2.93-5.32C146.63,382.38,143.28,384.64,143,388.5Z"/><polyline class="cls-1" points="209.6 118.82 214.37 127.16 501.34 203.37 509.68 198.6"/></svg>