<svg id="Layer_1" data-name="Layer 1" xmlns="http://www.w3.org/2000/svg" viewBox="0 0 789.3 937.28"><defs><style>.cls-1{fill:#293c93;}.cls-2{fill:none;stroke:#fff;stroke-miterlimit:10;stroke-width:2px;}</style></defs><path class="cls-1" d="M412,904.48c-7.21-10.68-14.33-21.42-21.63-32-19.78-28.78-40.73-56.76-57.44-87.59C320.51,762,311.56,737.79,304.14,713c-4-13.33-10.81-25.54-14.05-39.14-3.43-14.38-4.62-29-6.81-43.58-2.75-18.25-5.92-36.52-4-55,1.08-10.12,1.35-20.73,5.85-30.08a32.7,32.7,0,0,1,25-18.58c20.46-3.28,38,2.81,52.23,18.26,9.09,9.84,13.66,22.23,20,33.58a172,172,0,0,1,18,45.56c4.29,18.73,10.32,36.93,16,55.26,4.67,14.95,9.57,29.88,13.86,45,3,10.45,7.86,20.37,10.62,30.86,3.39,12.86,11.29,23.83,14,38,7.64-11,14.95-20.81,21.43-31.11,15.36-24.43,30.83-48.79,46.16-73.24,10.61-16.92,18.17-35.36,28.42-52.39,7.24-12.05,13.13-24.9,21.24-36.43,5.6-8,7.48-17.58,11.81-26.11,1.27-2.5,2.6-4.88,4.88-6,12.59-6.44,25.35-12.51,40.1-11.3,2.48.21,5.1.21,7.37,1.07,13,4.88,26.67,8.15,38.56,15.78,4.72,3,10.25,2.34,15.49,2.83,1.61.15,2.55-.53,1.86-2.42-.45-1.24-.67-2.57-1-3.85-.82-3-.81-6.86-2.7-8.91s-5.58.61-8.52.28c-8.56-1-16.23-3.85-21.16-11.35-3.06-4.65-6.8-7-12.47-7.81-24.1-3.48-42.21-27.59-39.41-52a41.17,41.17,0,0,1,1.54-5.65c2.44,3.19,1.43,6.43,2.52,9.13,1.45,3.57,2.44,8,6.8,8.42,4.72.42,7.66-3.16,9.93-7.12,5.77-10,1.67-19.6-1.31-29.21-5.19-16.72-5.91-33.28,1.5-49.62a34,34,0,0,1,5.17-8.9c-.55,4.92-1.8,8.88-.71,12.95a22.63,22.63,0,0,0,3,7.34c1.51,2.14,3.5,3.59,6.38,2.95s5-2.49,5.05-5.41c0-8.54,1.85-16.92-.51-25.67C630.91,342.3,616,285,600.89,227.81q-22-83.19-44.2-166.33c-1.14-4.23-1.11-7.48,1.62-10.91,2-2.52,3.56-5.41,6-9.11,32.67,123.33,65,245.45,97.39,367.58l1.08,0c.12-2.13.18-4.26.39-6.39.12-1.3,0-2.93.78-3.81,4-4.73,1.73-9.42.45-14.27Q643.62,306.21,623,227.79c-17.09-64.58-34.32-129.12-51.28-193.74-1.19-4.55-3.18-4.31-6.62-3.4Q482.55,52.64,400,74.5q-91,24.09-182,48.1Q125.54,147,33.09,171.43c-4.05,1.06-4.19,2.29-3.2,6q25.29,94.82,50.23,189.73,23.34,88.35,46.73,176.68,26.86,101.83,53.6,203.72c7.77,29.57,15,59.29,23.23,88.74,7.76,27.77,14.88,55.7,22.37,83.54.85,3.15,1.87,3.43,4.73,2.67C281.66,909,332.58,895.64,383.44,882c3.87-1,6.06-.59,8.05,2.87,2.79,4.86,6.58,9.13,8.49,14.51a1.63,1.63,0,0,0-.94.23,1.7,1.7,0,0,0-2,.8l-2,.24a1.69,1.69,0,0,0-2,.75,9.41,9.41,0,0,0-5,1.23l-1.67.57-2.33.43-1.6.62C367,907.38,352,912,336.75,916c-38.16,10-76.27,20.2-114.38,30.38-3.43.91-5.08.7-6.16-3.52-7.94-31.12-16.28-62.13-24.45-93.19-8.21-31.22-16.26-62.49-24.54-93.7q-28.8-108.54-57.73-217.07Q75.62,410.85,42,282.74,26.94,225.56,11.65,168.43c-1.76-6.62-1.79-6.63,4.29-8.23Q134.62,128.83,253.3,97.46,402,58.1,550.59,18.67c8.33-2.21,16.82-3.89,25-6.54,4.87-1.57,6.36-.17,7.54,4.36,10.08,38.66,20.37,77.28,30.59,115.91Q636.55,218.7,659.39,305q9.74,36.79,19.5,73.58c.46,1.74,1,3.47,1.62,5.7,2.18-13.65,6.44-20.88,14.51-24.75a17.24,17.24,0,0,0,2.2,8.58c.8,1.58,1.91,2.57,3.33.76,9.49-12.08,21.43-22.58,25.16-38.41a74,74,0,0,0,1.9-10.68,47.35,47.35,0,0,1,6.2,31.71c-1.56,10.92-3.45,21.9-6.17,33l12.12-11.37c1.07,7.29-1.23,13.19-4.48,18.7s-2.5,11.13-.55,16.74c1,3,2.75,4.66,6.22,2.74,1.68-.92,3.71-1.2,5.5-1.75.89,1.12.13,1.8-.35,2.29-5.56,5.76-5.43,13.27-6.41,20.45a7.54,7.54,0,0,0,2.34,6.3c3.7,4,5,8.84,5,14.18,0,1.37-.83,3.35,1.09,3.93s3-1.17,3.94-2.5c4-5.45,8-11,12.47-16.37-.42,11.92,2.52,23.67,1.15,35.51-.68,5.88-4.05,10.82-7.89,15.29-.87,1-1.84,1.94-2.66,3-2.15,2.74-1,5.66.52,7.85,1.75,2.51,3.46-.4,5-1.12,2.83-1.32,5.48-3,8.23-4.59,2.44,9.21-2.56,21.51-14,32.8-8.94,8.83-18.37,17.21-33.05,15.4,3.4,9.53,4,18.71,8.12,27,1.13,2.22.65,5.21,1.22,7.78a6.42,6.42,0,0,0,2.27,4.19c2.7,2.09,4.31,2.92,6.63-.75,2.51-4,6.8-6.15,11.2-7.95,2.85-1.16,5.59-.82,7.32,1.27s-.38,4.3-1.77,6.11c-4.84,6.31-8.16,13.44-12,21.09,7.8-2.44,13.61-6.62,19-11.5,6.07-5.47,12.68-9.81,21.46-8.62a8.47,8.47,0,0,1,2,.12c1.51.65,3.57,1.11,4.27,2.31.94,1.63-1,3.07-2.2,4-7.18,5.45-11.16,14.07-19,19,6.08-.21,12.06-1,17.94.55a21.85,21.85,0,0,1,4.27,1.33,9.47,9.47,0,0,1,5.36,8.43c0,3.75-4.06,4-6.87,4.41-6.41.87-12.9,1.18-19.34,1.91-7.15.81-13.81,3.62-20.34,6.25A49.31,49.31,0,0,1,730,632.56c-10.46-.56-20.89.43-31.34.13a9.24,9.24,0,0,0-3.95.29c-12,5.43-22.93,1-34-3-12.19-4.44-24.9-6.84-37.62-9.2-2.25-.42-3.23.38-4,2.44-21.48,56.67-48.15,111-74.72,165.38-16.91,34.59-34.57,68.79-55.48,101.23-7.61,11.8-17.37,21.34-27.93,30.28l-5.21,2.25-2.52.06c-.37-.37-.69-.33-1,.1l-2.18.78-5.93.53-2.38.51-.37-.15-.33.27-2.36-.14c-2.5-.19-4-2.73-6.61-2.72l-.86-.51L419,912.59c-.35-.37-.7-.74-1-1.12s-.57-.81-.85-1.22l-.92-.85L412,904.56ZM705.88,394.39c-3.1.36-4.93,2.6-6.79,4.71-5.09,5.79-9.38,12-11,19.78-.38,1.83-1.1,3.73-3.29,3.83-2.38.1-2.47-2.29-3.38-3.78-1.08-1.76.49-4.46-2.23-5.86-.2,4.3-1,8.37-.52,12.57.56,5.08-1,9.89-2.75,14.57-.61,1.59-1.54,3.25-3.46,3.12s-2.81-1.8-3.63-3.6c-1.47-3.28-.44-6.48-.1-9.88-2.29,1.24-2.79,3.08-2.78,5.17,0,3.67.17,7.34,0,11a23.12,23.12,0,0,1-8.4,16.93c-3.38,3-6.5,2.05-8.21-2.07-.58-1.39.29-3.48-2-4.17-2.74,2.93-3.32,6.54-2.82,10.21,1.42,10.44,4.43,20.39,10,29.43a31.24,31.24,0,0,1,4.71,16.53c0,3.91-1.89,4-4.71,3.37-3-.7-5.07-3.24-8.91-5.3,2.92,5.75,5.35,10.23,7.51,14.83,2,4.26,4.94,6.62,9.82,5.67,3.8-.74,5.76,1.1,7.16,4.43,3.7,8.81,11.46,12.4,20.75,10,6.89-1.79,12.11-6,16.81-11.08,4.27-4.59,7.87-9.85,14.22-12.16,11-4,14.79-13.2,17.07-24.21-3.4,2.5-5.06,5.64-7.34,8.23-1,1.17-2,3.47-3.77,2.55s-1.05-3.32-.6-5c1.2-4.37,4-8,6.1-12,2.72-5.24,4.51-10.65,4.14-17.22-4.67,3.58-7.66,7.93-12.2,10.55-2.57,1.48-3.4.85-3.79-1.88-.67-4.65,0-9.37,2.5-13,8.22-11.63,1.58-23.9,2.58-35.82-2.8,3.53-5.06,7.21-7.64,10.66-1.24,1.67-3,3.57-5.44,2.44-2.26-1-2-3.64-1.41-5.35,3.27-9.64-1.1-16.83-7.48-23.1-4.38-4.31-4.41-9.09-2.82-14.17,1.12-3.61,3-7,4.51-10.48.42-.26,1.34-.35.89-1C706.88,393.44,706.09,393.58,705.88,394.39Zm2.51,156.93c-2.34,1.77-4.13,3.19-6,4.51a2.54,2.54,0,0,0-1.28,2.92c1.31,4.94,2.19,10.07,4.13,14.76,1.46,3.52,5.42,1.64,8,1.42,2.13-.19.65-2.76.33-4.08C712.05,564.47,710.24,558.14,708.39,551.32Zm1,54.93c6.27.65,9.17-1,12.42-7.15C717.15,601,711.13,599.15,709.42,606.25Z" transform="translate(-9.63 -10.51)"/><path class="cls-2" d="M412,904.48c-7.21-10.68-14.33-21.42-21.63-32-19.78-28.78-40.73-56.76-57.44-87.59C320.51,762,311.56,737.79,304.14,713c-4-13.33-10.81-25.54-14.05-39.14-3.43-14.38-4.62-29-6.81-43.58-2.75-18.25-5.92-36.52-4-55,1.08-10.12,1.35-20.73,5.85-30.08a32.7,32.7,0,0,1,25-18.58c20.46-3.28,38,2.81,52.23,18.26,9.09,9.84,13.66,22.23,20,33.58a172,172,0,0,1,18,45.56c4.29,18.73,10.32,36.93,16,55.26,4.67,14.95,9.57,29.88,13.86,45,3,10.45,7.86,20.37,10.62,30.86,3.39,12.86,11.29,23.83,14,38,7.64-11,14.95-20.81,21.43-31.11,15.36-24.43,30.83-48.79,46.16-73.24,10.61-16.92,18.17-35.36,28.42-52.39,7.24-12.05,13.13-24.9,21.24-36.43,5.6-8,7.48-17.58,11.81-26.11,1.27-2.5,2.6-4.88,4.88-6,12.59-6.44,25.35-12.51,40.1-11.3,2.48.21,5.1.21,7.37,1.07,13,4.88,26.67,8.15,38.56,15.78,4.72,3,10.25,2.34,15.49,2.83,1.61.15,2.55-.53,1.86-2.42-.45-1.24-.67-2.57-1-3.85-.82-3-.81-6.86-2.7-8.91s-5.58.61-8.52.28c-8.56-1-16.23-3.85-21.16-11.35-3.06-4.65-6.8-7-12.47-7.81-24.1-3.48-42.21-27.59-39.41-52a41.17,41.17,0,0,1,1.54-5.65c2.44,3.19,1.43,6.43,2.52,9.13,1.45,3.57,2.44,8,6.8,8.42,4.72.42,7.66-3.16,9.93-7.12,5.77-10,1.67-19.6-1.31-29.21-5.19-16.72-5.91-33.28,1.5-49.62a34,34,0,0,1,5.17-8.9c-.55,4.92-1.8,8.88-.71,12.95a22.63,22.63,0,0,0,3,7.34c1.51,2.14,3.5,3.59,6.38,2.95s5-2.49,5.05-5.41c0-8.54,1.85-16.92-.51-25.67C630.91,342.3,616,285,600.89,227.81q-22-83.19-44.2-166.33c-1.14-4.23-1.11-7.48,1.62-10.91,2-2.52,3.56-5.41,6-9.11,32.67,123.33,65,245.45,97.39,367.58l1.08,0c.12-2.13.18-4.26.39-6.39.12-1.3,0-2.93.78-3.81,4-4.73,1.73-9.42.45-14.27Q643.62,306.21,623,227.79c-17.09-64.58-34.32-129.12-51.28-193.74-1.19-4.55-3.18-4.31-6.62-3.4Q482.55,52.64,400,74.5q-91,24.09-182,48.1Q125.54,147,33.09,171.43c-4.05,1.06-4.19,2.29-3.2,6q25.29,94.82,50.23,189.73,23.34,88.35,46.73,176.68,26.86,101.83,53.6,203.72c7.77,29.57,15,59.29,23.23,88.74,7.76,27.77,14.88,55.7,22.37,83.54.85,3.15,1.87,3.43,4.73,2.67C281.66,909,332.58,895.64,383.44,882c3.87-1,6.06-.59,8.05,2.87,2.79,4.86,6.58,9.13,8.49,14.51a1.63,1.63,0,0,0-.94.23,1.7,1.7,0,0,0-2,.8l-2,.24a1.69,1.69,0,0,0-2,.75,9.41,9.41,0,0,0-5,1.23l-1.67.57-2.33.43-1.6.62C367,907.38,352,912,336.75,916c-38.16,10-76.27,20.2-114.38,30.38-3.43.91-5.08.7-6.16-3.52-7.94-31.12-16.28-62.13-24.45-93.19-8.21-31.22-16.26-62.49-24.54-93.7q-28.8-108.54-57.73-217.07Q75.62,410.85,42,282.74,26.94,225.56,11.65,168.43c-1.76-6.62-1.79-6.63,4.29-8.23Q134.62,128.83,253.3,97.46,402,58.1,550.59,18.67c8.33-2.21,16.82-3.89,25-6.54,4.87-1.57,6.36-.17,7.54,4.36,10.08,38.66,20.37,77.28,30.59,115.91Q636.55,218.7,659.39,305q9.74,36.79,19.5,73.58c.46,1.74,1,3.47,1.62,5.7,2.18-13.65,6.44-20.88,14.51-24.75a17.24,17.24,0,0,0,2.2,8.58c.8,1.58,1.91,2.57,3.33.76,9.49-12.08,21.43-22.58,25.16-38.41a74,74,0,0,0,1.9-10.68,47.35,47.35,0,0,1,6.2,31.71c-1.56,10.92-3.45,21.9-6.17,33l12.12-11.37c1.07,7.29-1.23,13.19-4.48,18.7s-2.5,11.13-.55,16.74c1,3,2.75,4.66,6.22,2.74,1.68-.92,3.71-1.2,5.5-1.75.89,1.12.13,1.8-.35,2.29-5.56,5.76-5.43,13.27-6.41,20.45a7.54,7.54,0,0,0,2.34,6.3c3.7,4,5,8.84,5,14.18,0,1.37-.83,3.35,1.09,3.93s3-1.17,3.94-2.5c4-5.45,8-11,12.47-16.37-.42,11.92,2.52,23.67,1.15,35.51-.68,5.88-4.05,10.82-7.89,15.29-.87,1-1.84,1.94-2.66,3-2.15,2.74-1,5.66.52,7.85,1.75,2.51,3.46-.4,5-1.12,2.83-1.32,5.48-3,8.23-4.59,2.44,9.21-2.56,21.51-14,32.8-8.94,8.83-18.37,17.21-33.05,15.4,3.4,9.53,4,18.71,8.12,27,1.13,2.22.65,5.21,1.22,7.78a6.42,6.42,0,0,0,2.27,4.19c2.7,2.09,4.31,2.92,6.63-.75,2.51-4,6.8-6.15,11.2-7.95,2.85-1.16,5.59-.82,7.32,1.27s-.38,4.3-1.77,6.11c-4.84,6.31-8.16,13.44-12,21.09,7.8-2.44,13.61-6.62,19-11.5,6.07-5.47,12.68-9.81,21.46-8.62a8.47,8.47,0,0,1,2,.12c1.51.65,3.57,1.11,4.27,2.31.94,1.63-1,3.07-2.2,4-7.18,5.45-11.16,14.07-19,19,6.08-.21,12.06-1,17.94.55a21.85,21.85,0,0,1,4.27,1.33,9.47,9.47,0,0,1,5.36,8.43c0,3.75-4.06,4-6.87,4.41-6.41.87-12.9,1.18-19.34,1.91-7.15.81-13.81,3.62-20.34,6.25A49.31,49.31,0,0,1,730,632.56c-10.46-.56-20.89.43-31.34.13a9.24,9.24,0,0,0-3.95.29c-12,5.43-22.93,1-34-3-12.19-4.44-24.9-6.84-37.62-9.2-2.25-.42-3.23.38-4,2.44-21.48,56.67-48.15,111-74.72,165.38-16.91,34.59-34.57,68.79-55.48,101.23-7.61,11.8-17.37,21.34-27.93,30.28l-5.21,2.25-2.52.06c-.37-.37-.69-.33-1,.1l-2.18.78-5.93.53-2.38.51-.37-.15-.33.27-2.36-.14c-2.5-.19-4-2.73-6.61-2.72l-.86-.51L419,912.59c-.35-.37-.7-.74-1-1.12s-.57-.81-.85-1.22l-.92-.85L412,904.56ZM705.88,394.39c-3.1.36-4.93,2.6-6.79,4.71-5.09,5.79-9.38,12-11,19.78-.38,1.83-1.1,3.73-3.29,3.83-2.38.1-2.47-2.29-3.38-3.78-1.08-1.76.49-4.46-2.23-5.86-.2,4.3-1,8.37-.52,12.57.56,5.08-1,9.89-2.75,14.57-.61,1.59-1.54,3.25-3.46,3.12s-2.81-1.8-3.63-3.6c-1.47-3.28-.44-6.48-.1-9.88-2.29,1.24-2.79,3.08-2.78,5.17,0,3.67.17,7.34,0,11a23.12,23.12,0,0,1-8.4,16.93c-3.38,3-6.5,2.05-8.21-2.07-.58-1.39.29-3.48-2-4.17-2.74,2.93-3.32,6.54-2.82,10.21,1.42,10.44,4.43,20.39,10,29.43a31.24,31.24,0,0,1,4.71,16.53c0,3.91-1.89,4-4.71,3.37-3-.7-5.07-3.24-8.91-5.3,2.92,5.75,5.35,10.23,7.51,14.83,2,4.26,4.94,6.62,9.82,5.67,3.8-.74,5.76,1.1,7.16,4.43,3.7,8.81,11.46,12.4,20.75,10,6.89-1.79,12.11-6,16.81-11.08,4.27-4.59,7.87-9.85,14.22-12.16,11-4,14.79-13.2,17.07-24.21-3.4,2.5-5.06,5.64-7.34,8.23-1,1.17-2,3.47-3.77,2.55s-1.05-3.32-.6-5c1.2-4.37,4-8,6.1-12,2.72-5.24,4.51-10.65,4.14-17.22-4.67,3.58-7.66,7.93-12.2,10.55-2.57,1.48-3.4.85-3.79-1.88-.67-4.65,0-9.37,2.5-13,8.22-11.63,1.58-23.9,2.58-35.82-2.8,3.53-5.06,7.21-7.64,10.66-1.24,1.67-3,3.57-5.44,2.44-2.26-1-2-3.64-1.41-5.35,3.27-9.64-1.1-16.83-7.48-23.1-4.38-4.31-4.41-9.09-2.82-14.17,1.12-3.61,3-7,4.51-10.48.42-.26,1.34-.35.89-1C706.88,393.44,706.09,393.58,705.88,394.39Zm2.51,156.93c-2.34,1.77-4.13,3.19-6,4.51a2.54,2.54,0,0,0-1.28,2.92c1.31,4.94,2.19,10.07,4.13,14.76,1.46,3.52,5.42,1.64,8,1.42,2.13-.19.65-2.76.33-4.08C712.05,564.47,710.24,558.14,708.39,551.32Zm1,54.93c6.27.65,9.17-1,12.42-7.15C717.15,601,711.13,599.15,709.42,606.25Z" transform="translate(-9.63 -10.51)"/><path class="cls-1" d="M507.93,870.59c4.51-8.05,8.8-15.34,12.68-22.85,1.13-2.18,2.73-2.66,4.63-3.17q66-17.49,132.08-35c35.53-9.4,71-18.87,106.61-28.05,4.4-1.14,4.55-2.9,3.57-6.61q-16.05-60.24-31.87-120.53c-1.09-4.15-2.12-8.32-3.37-12.42-.8-2.61-.24-3.76,2.64-3.54a30.79,30.79,0,0,0,5,0c7.17-.6,7.22-.64,9,6.06Q768.5,718.75,788.16,793c1,3.74-1,4-3.42,4.63q-44.68,11.8-89.36,23.67-92.48,24.45-184.95,48.86C509.82,870.28,509.18,870.35,507.93,870.59Z" transform="translate(-9.63 -10.51)"/><path class="cls-2" d="M507.93,870.59c4.51-8.05,8.8-15.34,12.68-22.85,1.13-2.18,2.73-2.66,4.63-3.17q66-17.49,132.08-35c35.53-9.4,71-18.87,106.61-28.05,4.4-1.14,4.55-2.9,3.57-6.61q-16.05-60.24-31.87-120.53c-1.09-4.15-2.12-8.32-3.37-12.42-.8-2.61-.24-3.76,2.64-3.54a30.79,30.79,0,0,0,5,0c7.17-.6,7.22-.64,9,6.06Q768.5,718.75,788.16,793c1,3.74-1,4-3.42,4.63q-44.68,11.8-89.36,23.67-92.48,24.45-184.95,48.86C509.82,870.28,509.18,870.35,507.93,870.59Z" transform="translate(-9.63 -10.51)"/><path class="cls-1" d="M755.45,774,528.62,833.91c1.6-5.06,4.15-8.71,6.13-12.63.81-1.59,2.35-1.61,3.79-2C604,802,669.54,784.8,735,767.22,743.49,764.93,748,771,755.45,774Z" transform="translate(-9.63 -10.51)"/><path class="cls-2" d="M755.45,774,528.62,833.91c1.6-5.06,4.15-8.71,6.13-12.63.81-1.59,2.35-1.61,3.79-2C604,802,669.54,784.8,735,767.22,743.49,764.93,748,771,755.45,774Z" transform="translate(-9.63 -10.51)"/><path class="cls-1" d="M717.09,638.47c4.28-1.59,5.36,1.47,6.41,5.49,10.77,41.15,21.7,82.25,32.51,123.39.31,1.18,1.59,2.66.46,3.69-1.3,1.17-2.83-.13-4-.78-6.12-3.34-10.74-7.25-12.67-15-9.14-36.75-19.06-73.31-28.71-109.94C709.29,638.53,709.27,638.54,717.09,638.47Z" transform="translate(-9.63 -10.51)"/><path class="cls-2" d="M717.09,638.47c4.28-1.59,5.36,1.47,6.41,5.49,10.77,41.15,21.7,82.25,32.51,123.39.31,1.18,1.59,2.66.46,3.69-1.3,1.17-2.83-.13-4-.78-6.12-3.34-10.74-7.25-12.67-15-9.14-36.75-19.06-73.31-28.71-109.94C709.29,638.53,709.27,638.54,717.09,638.47Z" transform="translate(-9.63 -10.51)"/><path class="cls-1" d="M445.8,190.57c2.91-.94,6-1.44,9.31.08,3.89,1.81,5.51,4.73,3.65,8.42-7.7,15.29-11.53,32.29-20.72,46.86a50.14,50.14,0,0,1-23.55,20c-11.47,4.79-23.82,6.81-35.36,11.38-22,8.71-31,19.82-31.29,41.6-.12,8.43-3.74,14.93-9.7,20.53-5.21,4.9-10.68,9.55-15.08,15.25-3.89,5-9.41,7.14-15.41,8.21-3.06.54-4.45,1.25-4.27,5.25.22,4.73-.61,9.55.12,14.36.56,3.67,1.93,6.58,5.42,8.39,1.9,1,3.44,2.61,5.25,3.78,2.89,1.87,8.43,3.73,8.35,5.37-.26,4.92-.83,10.09-3,14.91q-24.39,55-48.5,110.11-36,81.74-72,163.45a4.75,4.75,0,0,1-2.16,2.48c.44-6.41.78-12.82,1.33-19.22,1.23-14.54,2.66-29.06,3.85-43.6,1.71-20.88,3.41-41.76,4.89-62.65s2.7-41.82,4-62.74q2.91-46.51,5.8-93.05c.85-13.77,1.5-27.56,2.43-41.33q2.86-42.51,5.93-85c.6-8.44,1.38-16.86,2.06-25.29a12.88,12.88,0,0,1,3.49-8c8.31-9.31,16.38-18.83,24.46-28.35a10.23,10.23,0,0,1,5.7-3.57c34.71-8.61,68.73-19.79,103.58-27.88,18.9-4.39,37.9-8.35,57.27-9.78,8.35-.62,16.12,3.31,24.05,5.52C449,187,444.2,188.79,445.8,190.57Zm-134.68,153c8.16-2.43,14-7.25,18.3-14.87,5-8.74,7.71-18.25,11.6-27.35,6.89-16.09,18.13-27.85,34.14-35.17,7.42-3.39,15.4-5.15,22.76-8.63,10.78-5.1,21.56-10.73,26.37-22.28,5-12,10.87-23.49,16.34-35.21,1.14-2.45,1.18-2.43.67-6.06-6.45,8.63-11.4,17.48-14.36,27s-8.6,16.12-17.39,20.47c-10,4.92-20,9.75-27.88,18a22,22,0,0,1-8.53,5A51,51,0,0,0,349,282.07c-7.39,9.81-10.8,21.58-16.43,32.26-3.59,6.83-7,13.54-12.44,19.08q-4.69,4.83-9.41,9.63a35.86,35.86,0,0,0-9.44,7.19c-3.06,3-3.16,6.88-.07,11C300.43,352.59,306.38,348.46,311.12,343.59Z" transform="translate(-9.63 -10.51)"/><path class="cls-2" d="M445.8,190.57c2.91-.94,6-1.44,9.31.08,3.89,1.81,5.51,4.73,3.65,8.42-7.7,15.29-11.53,32.29-20.72,46.86a50.14,50.14,0,0,1-23.55,20c-11.47,4.79-23.82,6.81-35.36,11.38-22,8.71-31,19.82-31.29,41.6-.12,8.43-3.74,14.93-9.7,20.53-5.21,4.9-10.68,9.55-15.08,15.25-3.89,5-9.41,7.14-15.41,8.21-3.06.54-4.45,1.25-4.27,5.25.22,4.73-.61,9.55.12,14.36.56,3.67,1.93,6.58,5.42,8.39,1.9,1,3.44,2.61,5.25,3.78,2.89,1.87,8.43,3.73,8.35,5.37-.26,4.92-.83,10.09-3,14.91q-24.39,55-48.5,110.11-36,81.74-72,163.45a4.75,4.75,0,0,1-2.16,2.48c.44-6.41.78-12.82,1.33-19.22,1.23-14.54,2.66-29.06,3.85-43.6,1.71-20.88,3.41-41.76,4.89-62.65s2.7-41.82,4-62.74q2.91-46.51,5.8-93.05c.85-13.77,1.5-27.56,2.43-41.33q2.86-42.51,5.93-85c.6-8.44,1.38-16.86,2.06-25.29a12.88,12.88,0,0,1,3.49-8c8.31-9.31,16.38-18.83,24.46-28.35a10.23,10.23,0,0,1,5.7-3.57c34.71-8.61,68.73-19.79,103.58-27.88,18.9-4.39,37.9-8.35,57.27-9.78,8.35-.62,16.12,3.31,24.05,5.52C449,187,444.2,188.79,445.8,190.57Zm-134.68,153c8.16-2.43,14-7.25,18.3-14.87,5-8.74,7.71-18.25,11.6-27.35,6.89-16.09,18.13-27.85,34.14-35.17,7.42-3.39,15.4-5.15,22.76-8.63,10.78-5.1,21.56-10.73,26.37-22.28,5-12,10.87-23.49,16.34-35.21,1.14-2.45,1.18-2.43.67-6.06-6.45,8.63-11.4,17.48-14.36,27s-8.6,16.12-17.39,20.47c-10,4.92-20,9.75-27.88,18a22,22,0,0,1-8.53,5A51,51,0,0,0,349,282.07c-7.39,9.81-10.8,21.58-16.43,32.26-3.59,6.83-7,13.54-12.44,19.08q-4.69,4.83-9.41,9.63a35.86,35.86,0,0,0-9.44,7.19c-3.06,3-3.16,6.88-.07,11C300.43,352.59,306.38,348.46,311.12,343.59Z" transform="translate(-9.63 -10.51)"/><path class="cls-1" d="M428.77,564.8c-12.6-8-25.25-16-37.8-24.06-27.49-17.75-54.89-35.64-82.45-53.27-3.06-2-3.18-3.48-2-6.56,9.29-24.83,18.65-49.63,27.4-74.66,2.5-7.16,4-14.88,2.06-22.76-.44-1.75,1.89-1.78,3.07-1.79,7.24-.07,14-2.82,21-3.87,15.07-2.24,20.79-13.7,24.92-26,3.38-10.09,6.67-20.21,12-29.38,4.79-8.26,13.56-12.6,20.73-18.47,8.23-6.73,16.65-13.29,25.41-19.32,14.62-10.08,21.37-24.51,24-41.35a52.82,52.82,0,0,1,15.41-30.4c6.27-6.14,9.62-5.85,14,1.74,5.7,9.95,12.12,19.45,17.79,29.39a36.45,36.45,0,0,1,4.88,19.08,83.22,83.22,0,0,0,0,10c.71,7,4.08,8.41,9.92,4.39.5-.35,1-.68,2.25-1.52a11,11,0,0,1-4.84,7.79c-2.31,1.71-2.59,3.25-.67,5.69,6.77,8.64,13.21,17.53,20,26.15,2.52,3.21,6.37,5.18,8.14,9.22,2.56,5.85.1,11-6.15,12.14-.49.09-1,.27-1.44.38-8.61,2-9.27,3.1-7,11.52.82,3,1.91,6,1.77,9.25-.1,2.36-.33,4.91-2.36,6.24-3.29,2.17-2.76,4.2-.91,7,4.11,6.29,4.07,6.43-1.09,11.73-1.78,1.83-2.28,3.41-1,5.71a13,13,0,0,1,1.52,5.7c.42,9.08-.72,11-9.7,13.23-15.6,3.89-31.37,2.2-47.15,1.29-10.76-.61-21.6.38-29,9.78a71.85,71.85,0,0,0-13,26c-6.44,23.67-6.89,48.65-16.24,71.62-3.26,8-1.52,16,1.4,23.67s3.89,16.05,6.08,24Z" transform="translate(-9.63 -10.51)"/><path class="cls-2" d="M428.77,564.8c-12.6-8-25.25-16-37.8-24.06-27.49-17.75-54.89-35.64-82.45-53.27-3.06-2-3.18-3.48-2-6.56,9.29-24.83,18.65-49.63,27.4-74.66,2.5-7.16,4-14.88,2.06-22.76-.44-1.75,1.89-1.78,3.07-1.79,7.24-.07,14-2.82,21-3.87,15.07-2.24,20.79-13.7,24.92-26,3.38-10.09,6.67-20.21,12-29.38,4.79-8.26,13.56-12.6,20.73-18.47,8.23-6.73,16.65-13.29,25.41-19.32,14.62-10.08,21.37-24.51,24-41.35a52.82,52.82,0,0,1,15.41-30.4c6.27-6.14,9.62-5.85,14,1.74,5.7,9.95,12.12,19.45,17.79,29.39a36.45,36.45,0,0,1,4.88,19.08,83.22,83.22,0,0,0,0,10c.71,7,4.08,8.41,9.92,4.39.5-.35,1-.68,2.25-1.52a11,11,0,0,1-4.84,7.79c-2.31,1.71-2.59,3.25-.67,5.69,6.77,8.64,13.21,17.53,20,26.15,2.52,3.21,6.37,5.18,8.14,9.22,2.56,5.85.1,11-6.15,12.14-.49.09-1,.27-1.44.38-8.61,2-9.27,3.1-7,11.52.82,3,1.91,6,1.77,9.25-.1,2.36-.33,4.91-2.36,6.24-3.29,2.17-2.76,4.2-.91,7,4.11,6.29,4.07,6.43-1.09,11.73-1.78,1.83-2.28,3.41-1,5.71a13,13,0,0,1,1.52,5.7c.42,9.08-.72,11-9.7,13.23-15.6,3.89-31.37,2.2-47.15,1.29-10.76-.61-21.6.38-29,9.78a71.85,71.85,0,0,0-13,26c-6.44,23.67-6.89,48.65-16.24,71.62-3.26,8-1.52,16,1.4,23.67s3.89,16.05,6.08,24Z" transform="translate(-9.63 -10.51)"/><path class="cls-1" d="M511.1,660.64c-2.16-13.62-4.09-25.73-6-37.85-.46-2.94-.83-5.9-1.19-8.86-.49-4-2.34-6.68-5.86-9-19-12.54-37.76-25.42-56.68-38.07a9.88,9.88,0,0,1-4.45-6.2q-4.43-17.07-9.2-34a14.81,14.81,0,0,1-.11-8.27q12.86-46.43,25.43-92.92c.78-2.9,2-4.55,5-5.23a31.41,31.41,0,0,0,8.36-3.11c7.68-4.31,15.51-3.15,23.48-1.26,2.49.59,3.7,1.58,4.41,4.35,10.17,39.43,20.56,78.8,30.86,118.19,5.41,20.68,10.73,41.39,16.16,62.07.43,1.64.8,2.94-.15,4.67C531.34,623.11,521.61,641.19,511.1,660.64Z" transform="translate(-9.63 -10.51)"/><path class="cls-2" d="M511.1,660.64c-2.16-13.62-4.09-25.73-6-37.85-.46-2.94-.83-5.9-1.19-8.86-.49-4-2.34-6.68-5.86-9-19-12.54-37.76-25.42-56.68-38.07a9.88,9.88,0,0,1-4.45-6.2q-4.43-17.07-9.2-34a14.81,14.81,0,0,1-.11-8.27q12.86-46.43,25.43-92.92c.78-2.9,2-4.55,5-5.23a31.41,31.41,0,0,0,8.36-3.11c7.68-4.31,15.51-3.15,23.48-1.26,2.49.59,3.7,1.58,4.41,4.35,10.17,39.43,20.56,78.8,30.86,118.19,5.41,20.68,10.73,41.39,16.16,62.07.43,1.64.8,2.94-.15,4.67C531.34,623.11,521.61,641.19,511.1,660.64Z" transform="translate(-9.63 -10.51)"/><path class="cls-1" d="M41.51,181.2c3.85,1.94,7.6,4.11,11.57,5.75,2.48,1,2.29,3.17,2.74,4.88Q71.51,250.68,87,309.56,103.71,373,120.37,436.4q22.78,86.25,45.7,172.47,13.86,52.36,27.59,104.76C204.8,756.26,215.49,799,227.1,841.51c4.41,16.12,8.48,32.34,13.26,48.35,1.32,4.4,1,7.94-1.69,11.58-1.84,2.52-3.24,5.36-4.91,8.17-2.37-1.74-2-4.33-2.56-6.4-14.36-54.32-28.51-108.69-42.89-163q-30.39-114.81-61-229.56c-13.19-49.81-26.09-99.7-39.26-149.52Q64.73,272.95,41.21,184.84a22.52,22.52,0,0,1-.37-3Z" transform="translate(-9.63 -10.51)"/><path class="cls-2" d="M41.51,181.2c3.85,1.94,7.6,4.11,11.57,5.75,2.48,1,2.29,3.17,2.74,4.88Q71.51,250.68,87,309.56,103.71,373,120.37,436.4q22.78,86.25,45.7,172.47,13.86,52.36,27.59,104.76C204.8,756.26,215.49,799,227.1,841.51c4.41,16.12,8.48,32.34,13.26,48.35,1.32,4.4,1,7.94-1.69,11.58-1.84,2.52-3.24,5.36-4.91,8.17-2.37-1.74-2-4.33-2.56-6.4-14.36-54.32-28.51-108.69-42.89-163q-30.39-114.81-61-229.56c-13.19-49.81-26.09-99.7-39.26-149.52Q64.73,272.95,41.21,184.84a22.52,22.52,0,0,1-.37-3Z" transform="translate(-9.63 -10.51)"/><path class="cls-1" d="M476.77,204.68c-.67,5.18-2.9,9.86-4.71,14.66-5.26,14-10.35,28.07-17.49,41.14-9.37,17.15-22.85,30-42.44,35.14a88.4,88.4,0,0,0-14.29,5.63,21.6,21.6,0,0,0-11.6,13c-2.37,6.72-4.83,13.4-7.17,20.13-8.1,23.25-24,38-47.9,44.09-6.24,1.59-12.48,3.25-18.57,5.34-4.31,1.48-5.78-.52-6.55-4.09a19.24,19.24,0,0,1-.63-4.42c.12-4.17.39-7.21,6.21-8.44,15.32-3.27,28.26-12.09,41-20.76,6.08-4.14,7-11.73,8.34-18.58,3-15.3,8.57-29.15,20.74-39.77a37.11,37.11,0,0,1,16.69-8.27A76.8,76.8,0,0,0,431,263.19c6-5,10.06-11.53,13.1-18.51,6.08-14,12.7-27.73,16-42.76,1-4.56,5-7,8.73-6.37S476.77,201,476.77,204.68Z" transform="translate(-9.63 -10.51)"/><path class="cls-2" d="M476.77,204.68c-.67,5.18-2.9,9.86-4.71,14.66-5.26,14-10.35,28.07-17.49,41.14-9.37,17.15-22.85,30-42.44,35.14a88.4,88.4,0,0,0-14.29,5.63,21.6,21.6,0,0,0-11.6,13c-2.37,6.72-4.83,13.4-7.17,20.13-8.1,23.25-24,38-47.9,44.09-6.24,1.59-12.48,3.25-18.57,5.34-4.31,1.48-5.78-.52-6.55-4.09a19.24,19.24,0,0,1-.63-4.42c.12-4.17.39-7.21,6.21-8.44,15.32-3.27,28.26-12.09,41-20.76,6.08-4.14,7-11.73,8.34-18.58,3-15.3,8.57-29.15,20.74-39.77a37.11,37.11,0,0,1,16.69-8.27A76.8,76.8,0,0,0,431,263.19c6-5,10.06-11.53,13.1-18.51,6.08-14,12.7-27.73,16-42.76,1-4.56,5-7,8.73-6.37S476.77,201,476.77,204.68Z" transform="translate(-9.63 -10.51)"/><path class="cls-1" d="M42.62,178.73,560.35,41.9c-3,6.39-6,10.29-12.77,12.05Q417.05,88,286.71,122.63q-114.51,30.3-229,60.78C51.92,185,48.52,181,42.62,178.73Z" transform="translate(-9.63 -10.51)"/><path class="cls-2" d="M42.62,178.73,560.35,41.9c-3,6.39-6,10.29-12.77,12.05Q417.05,88,286.71,122.63q-114.51,30.3-229,60.78C51.92,185,48.52,181,42.62,178.73Z" transform="translate(-9.63 -10.51)"/><path class="cls-1" d="M382.31,872.58,237.47,910.85c3.37-6.68,4.72-13.58,14-15.88,40-9.86,79.69-20.79,119.45-31.48,3.56-1,5.82-.86,7.5,2.86C379.38,868.37,381.63,869.71,382.31,872.58Z" transform="translate(-9.63 -10.51)"/><path class="cls-2" d="M382.31,872.58,237.47,910.85c3.37-6.68,4.72-13.58,14-15.88,40-9.86,79.69-20.79,119.45-31.48,3.56-1,5.82-.86,7.5,2.86C379.38,868.37,381.63,869.71,382.31,872.58Z" transform="translate(-9.63 -10.51)"/><path class="cls-1" d="M40.84,181.87l-.42-1.08,1.09.41Z" transform="translate(-9.63 -10.51)"/><path class="cls-2" d="M40.84,181.87l-.42-1.08,1.09.41Z" transform="translate(-9.63 -10.51)"/><path class="cls-1" d="M429.65,564c.05.42.29,1,.11,1.21-.44.42-.77,0-1-.44Z" transform="translate(-9.63 -10.51)"/><path class="cls-2" d="M429.65,564c.05.42.29,1,.11,1.21-.44.42-.77,0-1-.44Z" transform="translate(-9.63 -10.51)"/><path class="cls-1" d="M713,511.46c-.82,9.58-1.6,12.7-11.62,14.49a41.24,41.24,0,0,1-16.69-.83c-3.18-.72-5.2-2.31-4.83-6.24.34-3.67-2.35-6.44-4.06-9.45-1.44-2.54-3.36-5-1.09-8.13,1.07-1.48-.52-2.8-1-4.1-.81-2.35-1.27-4.45.81-6.68,1.5,3.18,1.76,6.8,4.21,9.35.78.8,1.47,2,2.87,1.44s.94-1.9.69-3c-2.1-9.26.15-18.72-1.23-28-.58-3.94,1-7.18,3.81-10.29,4.48-5,6.22-11.57,8.33-17.84.62-1.83,1.39-3.61,2.58-6.69.49,6.79.76,12.29,1.33,17.76.76,7.28,2.15,14.32,10.36,17.12,2.22.75,2,2.32.76,3.34-3.29,2.59-2.86,4.7-.67,8,1.33,2,1.32,5.55.61,8a12.64,12.64,0,0,0,.32,8.32c2.56-1.91,3.38-5.34,6.45-8.21-1.85,7.79-1.36,14.78-1.92,21.7Z" transform="translate(-9.63 -10.51)"/><path class="cls-2" d="M713,511.46c-.82,9.58-1.6,12.7-11.62,14.49a41.24,41.24,0,0,1-16.69-.83c-3.18-.72-5.2-2.31-4.83-6.24.34-3.67-2.35-6.44-4.06-9.45-1.44-2.54-3.36-5-1.09-8.13,1.07-1.48-.52-2.8-1-4.1-.81-2.35-1.27-4.45.81-6.68,1.5,3.18,1.76,6.8,4.21,9.35.78.8,1.47,2,2.87,1.44s.94-1.9.69-3c-2.1-9.26.15-18.72-1.23-28-.58-3.94,1-7.18,3.81-10.29,4.48-5,6.22-11.57,8.33-17.84.62-1.83,1.39-3.61,2.58-6.69.49,6.79.76,12.29,1.33,17.76.76,7.28,2.15,14.32,10.36,17.12,2.22.75,2,2.32.76,3.34-3.29,2.59-2.86,4.7-.67,8,1.33,2,1.32,5.55.61,8a12.64,12.64,0,0,0,.32,8.32c2.56-1.91,3.38-5.34,6.45-8.21-1.85,7.79-1.36,14.78-1.92,21.7Z" transform="translate(-9.63 -10.51)"/><path class="cls-1" d="M713,511.52l.64-.81c.05.14.18.29.15.41-.1.5-.39.64-.85.34Z" transform="translate(-9.63 -10.51)"/><path class="cls-2" d="M713,511.52l.64-.81c.05.14.18.29.15.41-.1.5-.39.64-.85.34Z" transform="translate(-9.63 -10.51)"/></svg>